<svg xmlns="http://www.w3.org/2000/svg" width="1280" height="360" viewBox="0 0 1280 360" role="img" aria-label="Codex Account Toggle — Your accounts. One menu.">
<defs><linearGradient id="bg" x2="1" y2="1"><stop stop-color="#102d29"/><stop offset="1" stop-color="#081b1b"/></linearGradient><linearGradient id="tile" x2="0" y2="1"><stop stop-color="#219c80"/><stop offset="1" stop-color="#14604f"/></linearGradient></defs>
<rect width="1280" height="360" rx="24" fill="url(#bg)"/>
<circle cx="1190" cy="20" r="230" fill="#5edbb4" opacity=".05"/><circle cx="80" cy="400" r="200" fill="#5edbb4" opacity=".05"/>
<rect x="76" y="93" width="174" height="174" rx="40" fill="url(#tile)"/>
<g fill="#ecfff6"><rect x="105" y="127" width="112" height="41" rx="20" opacity=".18"/><rect x="119" y="188" width="112" height="41" rx="20" opacity=".18"/><circle cx="192" cy="148" r="16"/><circle cx="143" cy="208" r="16"/></g>
<g fill="none" stroke="#ecfff6" stroke-width="5" stroke-linecap="round" stroke-linejoin="round"><path d="M121 148h25m-10-10 10 10-10 10"/><path d="M214 208h-25m10-10-10 10 10 10"/></g>
<text x="298" y="103" fill="#72d6b8" font-family="-apple-system,BlinkMacSystemFont,Segoe UI,sans-serif" font-size="15" letter-spacing="3">NATIVE MACOS · OPEN SOURCE</text>
<text x="295" y="163" fill="#f0faf5" font-family="-apple-system,BlinkMacSystemFont,Segoe UI,sans-serif" font-size="51" font-weight="700" letter-spacing="-1.7">Codex Account Toggle</text>
<text x="298" y="211" fill="#bdd0c8" font-family="-apple-system,BlinkMacSystemFont,Segoe UI,sans-serif" font-size="27">Your accounts. One menu.</text>
<text x="298" y="266" fill="#7ea99b" font-family="-apple-system,BlinkMacSystemFont,Segoe UI,sans-serif" font-size="16">Switch accounts  /  Check quota  /  Stay in control</text>
</svg>